<svg height="512" viewBox="0 0 60 60" width="512" xmlns="http://www.w3.org/2000/svg"><g id="003---Astronaut-With-Flag" fill="none"><path id="Shape" d="m59 7s-1 13-10 12c-5.1-.57-10 .15-13 2.15-1.5742636.9467696-2.6666629 2.523466-3 4.33v-21.48c.6181473 1.33722589 1.6773849 2.42117912 3 3.07 3.26 1.93 9.87 3.36 23-.07z" fill="#955ba5"/><path id="Shape" d="m36 7.07v14.08c-1.5742636.9467696-2.6666629 2.523466-3 4.33v-21.48c.6181473 1.33722589 1.6773849 2.42117912 3 3.07z" fill="#894b9d"/><path id="Shape" d="m17.45 59h6.1c.6497804 0 1.2729475-.2581243 1.7324116-.7175884s.7175884-1.0826312.7175884-1.7324116v-.64c-.0036214-1.1228976-.7701414-2.0995924-1.86-2.37-1.2204252-.3052126-2.0113588-1.48513-1.83-2.73l1-8.25-9.83-.28-.42 12.72c5.01 4.46 4.55 4 4.39 4z" fill="#d25627"/><path id="Shape" d="m16.31 50.81c-.1765399 1.2437729.6124205 2.4207466 1.83 2.73 1.0898586.2704076 1.8563786 1.2471024 1.86 2.37v.64c0 1.3530976-1.0969024 2.45-2.45 2.45h-6.1c-1.3530976 0-2.45-1.0969024-2.45-2.45v-4.31c-.0439968-.6616344-.36316283-1.2745783-.88-1.69-1.42-1.09-1.34-3.66-1.21-4.89s.09-1.4.09-10.43l3.78-10.67 11.22 1.78v5.66l1.63 6c1.89 3.64-.63 7-.63 7h-4.22c-1.0172513-.0073478-1.8779532.7500699-2 1.76z" fill="#e57e25"/><path id="Shape" d="m22 26.34v2c-1.2634461.439898-2.5921671.663042-3.93.66-5.81 0-3.85.14-8.64-.54l1.38-3.89z" fill="#d25627"/><path id="Shape" d="m30 16.3c-.6634883 6.0884628-5.8054922 10.7003187-11.93 10.7-5.81 0-3.85.14-8.64-.54-5.50798275-1.716337-9.01506292-7.1092603-8.35-12.84l.64-5.54c.46686479-4.03277303 3.88029451-7.07648618 7.94-7.08h11.74c4.0825897-.02707618 7.5305816 3.02439667 8 7.08.6 5.56.79 6.45.6 8.22z" fill="#e57e25"/><path id="Shape" d="m30 14.3c-.5165011 4.5965855-3.6289047 8.4870899-8 10-2.37.83-3.76.66-8.77.66l-3.8-.54c-4.65291254-1.4273285-7.98291317-5.5236638-8.43-10.37 0-.32 0 .22.68-6 .4826548-4.03606284 3.91522287-7.06859478 7.98-7.05h11.74c4.0825897-.02707618 7.5305816 3.02439667 8 7.08.67 6.26.65 5.81.6 6.22z" fill="#f29c1f"/><path id="Shape" d="m18.07 23h-5.07c-3.64948785.0018398-6.83762838-2.466398-7.75-6-.49-1.91-.21-2.85.44-8.46.23386955-2.02017981 1.94633081-3.54332374 3.98-3.54h11.74c2.0412949-.01353809 3.7652908 1.51219833 4 3.54l.59 5.54c.2620912 2.263889-.453807 4.5320969-1.9680171 6.2353446-1.5142102 1.7032477-3.6829783 2.6798348-5.9619829 2.6846554z" fill="#35495e"/><path id="Shape" d="m10.56 9c-.4513667-.00262491-.8450221-.30729671-.96075506-.74358184-.11573295-.43628513.07514979-.89601682.46586836-1.12202092.3907185-.2260041.8844033-.16224814 1.2048867.15560276.2884599.28609046.3751619.71826679.219371 1.09348151-.155791.37521471-.5231059.61888111-.929371.61651849z" fill="#fff"/><path id="Shape" d="m20.56 9h-6c-.5522847 0-1-.44771525-1-1s.4477153-1 1-1h6c.5522847 0 1 .44771525 1 1s-.4477153 1-1 1z" fill="#fff"/><path id="Shape" d="m27 38h-18c-.97770795.0070398-1.89750866-.4628116-2.46486264-1.2590979s-.7110738-1.8190953-.38513736-2.7409021l2-6c.33940231-1.0182069 1.19622991-1.778 2.2477241-1.9931724 1.0514943-.2151724 2.1379081.1469655 2.85.95s.9416782 1.9249655.6022759 2.9431724l-.69 2.1h13.84c1.6568542 0 3 1.3431458 3 3s-1.3431458 3-3 3z" fill="#f29c1f"/><path id="Shape" d="m34 57v-54c0-1.1045695-.8954305-2-2-2s-2 .8954305-2 2v54c0 1.1045695.8954305 2 2 2s2-.8954305 2-2z" fill="#547580"/><g fill="#f0c419"><path id="Shape" d="m43 32c-.5522847 0-1-.4477153-1-1v-4c0-.5522847.4477153-1 1-1s1 .4477153 1 1v4c0 .5522847-.4477153 1-1 1z"/><path id="Shape" d="m45 30h-4c-.5522847 0-1-.4477153-1-1s.4477153-1 1-1h4c.5522847 0 1 .4477153 1 1s-.4477153 1-1 1z"/><path id="Shape" d="m54 6c-.5522847 0-1-.44771525-1-1v-4c0-.55228475.4477153-1 1-1s1 .44771525 1 1v4c0 .55228475-.4477153 1-1 1z"/><path id="Shape" d="m56 4h-4c-.5522847 0-1-.44771525-1-1s.4477153-1 1-1h4c.5522847 0 1 .44771525 1 1s-.4477153 1-1 1z"/><path id="Shape" d="m55 42c-.5522847 0-1-.4477153-1-1v-4c0-.5522847.4477153-1 1-1s1 .4477153 1 1v4c0 .5522847-.4477153 1-1 1z"/><path id="Shape" d="m57 40h-4c-.5522847 0-1-.4477153-1-1s.4477153-1 1-1h4c.5522847 0 1 .4477153 1 1s-.4477153 1-1 1z"/></g><path id="Shape" d="m18.07 23h-5.07c-3.64948785.0018398-6.83762838-2.466398-7.75-6 4.84-3.8 11.75-6.48 20.75-3.09.3150981 2.2910773-.3766769 4.6064151-1.8969831 6.3491116-1.5203061 1.7426965-3.7203734 2.7422194-6.0330169 2.7408884z" fill="#2c3e50"/><path id="Shape" d="m59 60h-3c-.5522847 0-1-.4477153-1-1s.4477153-1 1-1h3c.5522847 0 1 .4477153 1 1s-.4477153 1-1 1z" fill="#cbb292"/><path id="Shape" d="m52 60h-51c-.55228475 0-1-.4477153-1-1s.44771525-1 1-1h51c.5522847 0 1 .4477153 1 1s-.4477153 1-1 1z" fill="#cbb292"/></g></svg>