<svg height="512" viewBox="0 0 54 59" width="512" xmlns="http://www.w3.org/2000/svg"><g id="004---Astronaut" fill="none" transform="translate(-1)"><path id="Shape" d="m25.67 46.92c-1.1089709 3.8271801-2.8716239 7.4336831-5.21 10.66-.9611735 1.2956002-2.6833822 1.7664198-4.17 1.14-1.6448511-.7541388-2.5645675-2.5317073-2.23-4.31.7902451-3.6505779 2.0086764-7.1951053 3.63-10.56z" fill="#e57e25"/><path id="Shape" d="m39.71 58.72c-1.4866178.6264198-3.2088265.1556002-4.17-1.14-2.3285099-3.2322332-4.0902995-6.8369697-5.21-10.66l8-3c1.6208831 3.3536516 2.836127 6.8886013 3.62 10.53.3131337 1.7674052-.6078669 3.5230626-2.24 4.27z" fill="#e57e25"/><path id="Shape" d="m23 27-4.85 4.44-12-4.89c-.77151145-.316332-1.37655912-.9394949-1.67-1.72l-3.29-8.63c-.58542179-1.5519201.1980799-3.2845781 1.75000002-3.8699999 1.55192013-.5854219 3.28457812.1980798 3.86999998 1.7499999l2.79 7.4z" fill="#e57e25"/><path id="Shape" d="m54.81 16.2-3.26 8.63c-.2934409.7805051-.8984886 1.403668-1.67 1.72l-12 4.87-6.88-4.42c6-1.51 2.64-.33 15.4-5.52l2.79-7.4c.5854219-1.5519201 2.3180799-2.3354218 3.87-1.7499999 1.5519201.5854218 2.3354218 2.3180798 1.75 3.8699999z" fill="#e57e25"/><path id="Shape" d="m18.15 31.44c-2.14-.86-1.86-.71-1.82-.84.8178445-1.8064914 1.7359407-3.5658977 2.75-5.27l3.92 1.67z" fill="#d25627"/><path id="Shape" d="m17.69 43.85 8 3.07c-.21.68-.43 1.33-.65 1.95-3.58-.35-6.32-1.37-8.19-3.06.28-.74.58-1.4.84-1.96z" fill="#d25627"/><path id="Shape" d="m37.89 31.42-6.89-4.42c5.56-1.4 4.38-1 6-1.68 1.13 1.89 2 3.66 2.77 5.28 0 .1.23-.01-1.88.82z" fill="#d25627"/><path id="Shape" d="m38.32 43.88c.26.56.55 1.22.86 1.95-1.87 1.69-4.62 2.71-8.2 3-.22-.61-.44-1.26-.65-1.94z" fill="#d25627"/><path id="Shape" d="m40 39c0 5.46-4.24 7.51-9.69 7.92-1.551558.1050262-3.108442.1050262-4.66 0-5.44-.43-9.65-2.49-9.65-7.92 0-3.78 3-9.69 4.92-12.89h14.17c1.91 2.89 4.91 9.13 4.91 12.89z" fill="#f29c1f"/><path id="Shape" d="m36 27.68c-.4486229.2353295-.9130781.4391552-1.39.61-2.65.89-3.83.71-9.15.71-1.8976639.0085928-3.7698204-.4371587-5.46-1.3.44-.79.77-1.36.91-1.59h14.18c.14.22.47.78.91 1.57z" fill="#e57e25"/><path id="Shape" d="m30.54 27c-4.34 0-7.26.32-10.23-1.16-4.5098708-2.1468614-7.2183241-6.8627564-6.8-11.84 0-.24.12-1.16.67-5.94.4694184-4.05560333 3.9174103-7.10707618 8-7.08h11.69c4.0825897-.02707618 7.5305816 3.02439667 8 7.08.59 5.12.67 5.73.67 5.94.280329 3.3520025-.8590798 6.6677725-3.1406133 9.1394338-2.2815336 2.4716614-5.495703 3.8722678-8.8593867 3.8605662z" fill="#d25627"/><path id="Shape" d="m42.49 14c-.3608315 4.2490464-2.949517 7.9874129-6.8 9.82-.3511294.1704606-.7117179.3207058-1.08.45-2.65.89-3.83.71-9.15.71-6.2557548.0217562-11.4787218-4.7659635-12-11 0-.24.12-1.16.67-5.94.4694184-4.05560333 3.9174103-7.10707618 8-7.08h11.74c4.0825897-.02707618 7.5305816 3.02439667 8 7.08.54 5.16.62 5.77.62 5.96z" fill="#e57e25"/><path id="Shape" d="m30.54 23h-5.08c-2.2807487-.0019739-4.4522209-.9773302-5.9686535-2.6809295-1.5164326-1.7035994-2.2336336-3.9734527-1.9713465-6.2390705l.64-5.54c.2347092-2.02780167 1.9587051-3.55353809 4-3.54h11.71c2.0412949-.01353809 3.7652908 1.51219833 4 3.54l.64 5.54c.2628977 2.2708171-.4582085 4.5456262-1.9813178 6.2502856-1.5231093 1.7046593-3.7027071 2.6763094-5.9886822 2.6697144z" fill="#35495e"/><path id="Shape" d="m33 31v7c0 .5522847-.4477153 1-1 1h-8c-.5522847 0-1-.4477153-1-1v-7c0-.5522847.4477153-1 1-1h8c.5522847 0 1 .4477153 1 1z" fill="#f0c419"/><path id="Shape" d="m23 9c-.5522847 0-1-.44771525-1-1s.4477153-1 1-1 1 .44771525 1 1-.4477153 1-1 1z" fill="#fff"/><path id="Shape" d="m33 9h-6c-.5522847 0-1-.44771525-1-1s.4477153-1 1-1h6c.5522847 0 1 .44771525 1 1s-.4477153 1-1 1z" fill="#fff"/><path id="Shape" d="m30 34h-1c-.5522847 0-1-.4477153-1-1s.4477153-1 1-1h1c.5522847 0 1 .4477153 1 1s-.4477153 1-1 1z" fill="#f29c1f"/><path id="Shape" d="m30 37h-1c-.5522847 0-1-.4477153-1-1s.4477153-1 1-1h1c.5522847 0 1 .4477153 1 1s-.4477153 1-1 1z" fill="#f29c1f"/><g fill="#f0c419"><path id="Shape" d="m7 8c-.55228475 0-1-.44771525-1-1v-4c0-.55228475.44771525-1 1-1s1 .44771525 1 1v4c0 .55228475-.44771525 1-1 1z"/><path id="Shape" d="m9 6h-4c-.55228475 0-1-.44771525-1-1s.44771525-1 1-1h4c.55228475 0 1 .44771525 1 1s-.44771525 1-1 1z"/><path id="Shape" d="m51 38c-.5522847 0-1-.4477153-1-1v-4c0-.5522847.4477153-1 1-1s1 .4477153 1 1v4c0 .5522847-.4477153 1-1 1z"/><path id="Shape" d="m53 36h-4c-.5522847 0-1-.4477153-1-1s.4477153-1 1-1h4c.5522847 0 1 .4477153 1 1s-.4477153 1-1 1z"/><path id="Shape" d="m4 52c-.55228475 0-1-.4477153-1-1v-4c0-.5522847.44771525-1 1-1s1 .4477153 1 1v4c0 .5522847-.44771525 1-1 1z"/><path id="Shape" d="m6 50h-4c-.55228475 0-1-.4477153-1-1s.44771525-1 1-1h4c.55228475 0 1 .4477153 1 1s-.44771525 1-1 1z"/></g><path id="Shape" d="m30.54 23h-5.08c-3.847464.0047996-7.1534123-2.729854-7.87-6.51 5.7894409-4.7354229 13.5735211-6.2388667 20.71-4l.18 1.57c.2684488 2.2688408-.4459556 4.544206-1.963094 6.2524199-1.5171385 1.7082138-3.6922393 2.6862713-5.976906 2.6875801z" fill="#2c3e50"/></g></svg>